<svg xmlns="http://www.w3.org/2000/svg" width="128" height="128" viewBox="0 0 128 128">
  <path fill="#00d8ff" d="M17.021 70.468h2.724q2.383 0 2.383-2.723v-46.98q0-2.723-2.383-2.723H17.02ZM.001 7.83q0-3.405 3.403-3.405h22.469q6.808 0 10.042 3.575 3.234 3.404 3.234 9.021v53.277q0 2.553-2.383 4.425-2.213 1.873-6.128 2.213v.681q3.915 0 6.128 1.872 2.383 1.873 2.383 5.107v35.574q0 3.405-3.404 3.405H25.532q-3.404 0-3.404-3.405V86.81q0-1.362-.851-2.043-.681-.68-1.532-.68H17.02v36.084q0 3.405-3.404 3.405H3.404Q0 123.575 0 120.17z" font-family="Higet" font-size="170.213" style="line-height:1.25;-inkscape-font-specification:Higet"/>
  <path fill="#00d8ff" d="M83.745 110.979q0 5.617-3.405 9.191-3.234 3.405-9.872 3.405H57.532q-6.809 0-10.043-3.405-3.234-3.404-3.234-9.191V94.298q0-3.404 3.404-3.404h10.383q3.405 0 3.405 3.404v12.936q0 1.192.68 2.043.852.68 1.873.68h.17q1.021 0 1.702-.68.851-.851.851-2.043V87.32L47.66 84.936q-3.404-.51-3.404-3.744v-64.17q0-5.618 3.234-9.022 3.234-3.575 10.043-3.575h12.936q6.809 0 10.043 3.575 3.234 3.404 3.234 9.021v48.34q0 3.405-3.405 3.405H70.128q-3.405 0-3.405-3.404V20.766q0-1.192-.85-1.872-.682-.852-1.703-.852H64q-1.021 0-1.872.852-.681.68-.681 1.872V73.02l18.893 2.383q3.405.51 3.405 3.745z" font-family="Higet" font-size="170.213" style="line-height:1.25;-inkscape-font-specification:Higet"/>
  <path fill="#00d8ff" d="M88.85 7.83q0-3.405 3.405-3.405h10.213q3.404 0 3.404 3.405v102.128h2.724q2.383 0 2.383-2.724V72.17q0-3.404 3.404-3.404h10.213q3.404 0 3.404 3.404v37.107q0 5.787-3.745 10.042-3.574 4.256-9.532 4.256H92.255q-3.404 0-3.404-3.405z" font-family="Higet" font-size="170.213" style="line-height:1.25;-inkscape-font-specification:Higet"/>
</svg>
